# xmcd
#
# Track frame offsets: 
#        150
#        13524
#        26281
#        40405
#        52242
#        71435
#        86951
#        98846
#        113454
#        135700
#        153531
#        171000
#
# Disc length: 2490 seconds
#
# Revision: 5
# Processed by: cddbd v1.5.2PL0 Copyright (c) Steve Scherf et al.
# Submitted via: ExactAudioCopy v0.95b3
#
DISCID=9809b80c
DTITLE=Trick Pony - On a Mission
DYEAR=2002
DGENRE=Country
TTITLE0=On a Mission
TTITLE1=Nobody Ever Died of a Broken Heart
TTITLE2=I'm Not Thinkin' Straight Anymore
TTITLE3=Love Is a Ball
TTITLE4=Love Be Still
TTITLE5=A Boy Like You
TTITLE6=Hillbilly Blues
TTITLE7=Leavin' Seems to Be the Goin' Thing
TTITLE8=Rain
TTITLE9=Whiskey River (Featuring Willie Nelson)
TTITLE10=The Devil and Me
TTITLE11=Fast Horse
EXTD=
EXTT0=
EXTT1=
EXTT2=
EXTT3=
EXTT4=
EXTT5=
EXTT6=
EXTT7=
EXTT8=
EXTT9=
EXTT10=
EXTT11=
PLAYORDER=
